<svg preserveAspectRatio="none" overflow="visible" style="display: block;" width="156.233" height="417.086" viewBox="0 0 156.233 417.086" fill="none" xmlns="http://www.w3.org/2000/svg">
<path id="Subtract" fill-rule="evenodd" clip-rule="evenodd" d="M0 18.2691C0 7.07753 9.9734 -1.48221 21.0355 0.215207L136.587 17.9461C147.888 19.6803 156.233 29.4023 156.233 40.8356V393.928C156.233 406.718 145.864 417.086 133.075 417.086H23.1574C10.3679 417.086 0 406.718 0 393.928V18.2691ZM65.1501 11.1876C60.672 10.4281 56.6414 14.0087 56.8681 18.5451C57.0847 22.876 60.3569 26.4376 64.654 27.0196L94.9044 31.1162C99.6325 31.7564 103.705 27.7852 103.184 23.0425C102.826 19.7835 100.349 17.1577 97.1164 16.6094L65.1501 11.1876Z" fill="white"/>
</svg>
