<svg preserveAspectRatio="none" overflow="visible" style="display: block;" width="22.6579" height="22.6579" viewBox="0 0 22.6579 22.6579" fill="none" xmlns="http://www.w3.org/2000/svg">
<g id="Microphone">
<path id="Vector" d="M11.3297 15.5777C12.4561 15.5765 13.536 15.1285 14.3324 14.3321C15.1289 13.5356 15.5769 12.4557 15.5781 11.3293V5.66485C15.5781 4.53811 15.1305 3.45753 14.3337 2.66081C13.537 1.86408 12.4564 1.41649 11.3297 1.41649C10.203 1.41649 9.12237 1.86408 8.32565 2.66081C7.52893 3.45753 7.08134 4.53811 7.08134 5.66485V11.3293C7.08251 12.4557 7.53048 13.5356 8.32694 14.3321C9.12341 15.1285 10.2033 15.5765 11.3297 15.5777ZM8.49745 5.66485C8.49745 4.91369 8.79585 4.1933 9.327 3.66215C9.85815 3.13101 10.5785 2.83261 11.3297 2.83261C12.0808 2.83261 12.8012 3.13101 13.3324 3.66215C13.8635 4.1933 14.1619 4.91369 14.1619 5.66485V11.3293C14.1619 12.0805 13.8635 12.8009 13.3324 13.332C12.8012 13.8632 12.0808 14.1616 11.3297 14.1616C10.5785 14.1616 9.85815 13.8632 9.327 13.332C8.79585 12.8009 8.49745 12.0805 8.49745 11.3293V5.66485ZM12.0378 18.3745V21.2422C12.0378 21.43 11.9632 21.6101 11.8304 21.7428C11.6976 21.8756 11.5175 21.9502 11.3297 21.9502C11.1419 21.9502 10.9618 21.8756 10.829 21.7428C10.6962 21.6101 10.6216 21.43 10.6216 21.2422V18.3745C8.87595 18.1969 7.25814 17.3782 6.08106 16.0769C4.90398 14.7756 4.25125 13.084 4.2491 11.3293C4.2491 11.1415 4.3237 10.9614 4.45648 10.8287C4.58927 10.6959 4.76937 10.6213 4.95716 10.6213C5.14495 10.6213 5.32504 10.6959 5.45783 10.8287C5.59062 10.9614 5.66522 11.1415 5.66522 11.3293C5.66522 12.8316 6.26201 14.2724 7.3243 15.3347C8.3866 16.397 9.82738 16.9938 11.3297 16.9938C12.832 16.9938 14.2728 16.397 15.3351 15.3347C16.3974 14.2724 16.9942 12.8316 16.9942 11.3293C16.9942 11.1415 17.0688 10.9614 17.2016 10.8287C17.3343 10.6959 17.5144 10.6213 17.7022 10.6213C17.89 10.6213 18.0701 10.6959 18.2029 10.8287C18.3357 10.9614 18.4103 11.1415 18.4103 11.3293C18.4081 13.084 17.7554 14.7756 16.5783 16.0769C15.4012 17.3782 13.7834 18.1969 12.0378 18.3745Z" fill="white"/>
</g>
</svg>
