<svg preserveAspectRatio="none" overflow="visible" style="display: block;" width="16.0117" height="16.0117" viewBox="0 0 16.0117 16.0117" fill="none" xmlns="http://www.w3.org/2000/svg">
<g id="Storefront">
<path id="Vector" d="M14.511 6.0043C14.5112 5.95778 14.5049 5.91145 14.4922 5.8667L13.5947 2.7269C13.5343 2.51857 13.4082 2.33534 13.2352 2.20457C13.0622 2.07381 12.8515 2.00253 12.6346 2.00137H3.37781C3.16093 2.00253 2.95023 2.07381 2.7772 2.20457C2.60416 2.33534 2.47806 2.51857 2.41774 2.7269L1.52083 5.8667C1.50791 5.91142 1.50138 5.95775 1.50144 6.0043V7.00503C1.50144 7.39343 1.59187 7.77649 1.76556 8.12389C1.93926 8.47128 2.19145 8.77346 2.50217 9.0065V13.5098C2.50217 13.6425 2.55489 13.7698 2.64873 13.8636C2.74256 13.9574 2.86983 14.0102 3.00254 14.0102H13.0099C13.1426 14.0102 13.2698 13.9574 13.3637 13.8636C13.4575 13.7698 13.5102 13.6425 13.5102 13.5098V9.0065C13.821 8.77346 14.0731 8.47128 14.2468 8.12389C14.4205 7.77649 14.511 7.39343 14.511 7.00503V6.0043ZM3.37781 3.0021H12.6346L13.3489 5.50393H2.66542L3.37781 3.0021ZM6.5051 6.50467H9.5073V7.00503C9.5073 7.40315 9.34915 7.78496 9.06764 8.06647C8.78613 8.34798 8.40432 8.50613 8.0062 8.50613C7.60809 8.50613 7.22628 8.34798 6.94477 8.06647C6.66326 7.78496 6.5051 7.40315 6.5051 7.00503V6.50467ZM5.50437 6.50467V7.00503C5.50428 7.26316 5.43763 7.51691 5.31085 7.74176C5.18407 7.96661 5.00145 8.15497 4.78063 8.28865C4.55981 8.42232 4.30825 8.49679 4.05024 8.50487C3.79224 8.51295 3.53651 8.45436 3.30776 8.33476C3.27296 8.30766 3.23467 8.28536 3.19393 8.26846C2.98195 8.13275 2.80749 7.94591 2.68661 7.72514C2.56573 7.50436 2.50231 7.25673 2.50217 7.00503V6.50467H5.50437ZM12.5095 13.0094H3.50291V9.45683C3.66763 9.49003 3.83524 9.50679 4.00327 9.50686C4.39167 9.50686 4.77473 9.41644 5.12213 9.24274C5.46952 9.06904 5.7717 8.81685 6.00474 8.50613C6.23778 8.81685 6.53996 9.06904 6.88735 9.24274C7.23474 9.41644 7.61781 9.50686 8.0062 9.50686C8.3946 9.50686 8.77766 9.41644 9.12506 9.24274C9.47245 9.06904 9.77463 8.81685 10.0077 8.50613C10.2407 8.81685 10.5429 9.06904 10.8903 9.24274C11.2377 9.41644 11.6207 9.50686 12.0091 9.50686C12.1772 9.50679 12.3448 9.49003 12.5095 9.45683V13.0094ZM12.8179 8.26846C12.7776 8.2854 12.7398 8.30747 12.7053 8.33413C12.4765 8.45385 12.2208 8.51256 11.9628 8.50459C11.7047 8.49662 11.4531 8.42223 11.2322 8.28861C11.0113 8.15499 10.8286 7.96666 10.7018 7.74181C10.5749 7.51696 10.5082 7.2632 10.508 7.00503V6.50467H13.5102V7.00503C13.51 7.25679 13.4465 7.50446 13.3255 7.72524C13.2045 7.94602 13.03 8.13282 12.8179 8.26846Z" fill="black"/>
</g>
</svg>
