<svg preserveAspectRatio="none" overflow="visible" style="display: block;" width="29.887" height="3.99524" viewBox="0 0 29.887 3.99524" fill="none" xmlns="http://www.w3.org/2000/svg">
<g id="ARENA" clip-path="url(#clip0_0_62)">
<path id="Vector" d="M25.3743 3.99523L27.1121 0.0539856H28.1424L29.8871 3.99523H28.8568L28.4996 3.04501H26.7343L26.3703 3.99523H25.3743ZM26.9472 2.46733H28.2798L27.6204 0.718059H27.6067L26.9472 2.46733Z" fill="white"/>
<path id="Vector_2" d="M18.8794 3.99523V0.0539856H19.8204L21.888 2.73727H21.9017V0.0539856H22.8428V3.99523H21.9017L19.8342 1.31195H19.8204V3.99523H18.8794Z" fill="white"/>
<path id="Vector_3" d="M14.1982 0.664069V1.63048H16.2108V2.20817H14.1982V3.38515H16.3482V3.99523H13.2366V0.0539856H16.3482V0.664069H14.1982Z" fill="white"/>
<path id="Vector_4" d="M7.9921 2.45653V3.99524H7.04419V0.0809845C7.51128 0.0269948 8.015 0 8.55535 0C9.22851 0 9.73223 0.0989811 10.0665 0.296943C10.4008 0.491306 10.5679 0.766654 10.5679 1.12299C10.5679 1.38214 10.4786 1.60889 10.3001 1.80326C10.126 1.99762 9.88792 2.13259 9.58569 2.20818V2.21898C9.80549 2.31976 9.99553 2.53392 10.1558 2.86145L10.7053 3.99524H9.7162L9.19416 2.87765C9.11173 2.70488 9.01786 2.59151 8.91254 2.53752C8.80721 2.48353 8.62633 2.45653 8.36989 2.45653H7.9921ZM7.9921 1.88424H8.39737C9.21248 1.88424 9.62003 1.65568 9.62003 1.19857C9.62003 0.791849 9.24224 0.588488 8.48666 0.588488C8.29891 0.588488 8.13406 0.599286 7.9921 0.620882V1.88424Z" fill="white"/>
<path id="Vector_5" d="M0 3.99523L1.73784 0.0539856H2.76817L4.51288 3.99523H3.48254L3.12536 3.04501H1.36005L0.995993 3.99523H0ZM1.57298 2.46733H2.90555L2.24614 0.718059H2.2324L1.57298 2.46733Z" fill="white"/>
</g>
<defs>
<clipPath id="clip0_0_62">
<rect width="29.887" height="3.99524" fill="white"/>
</clipPath>
</defs>
</svg>
